<svg width="14" height="14" viewBox="0 0 14 14" fill="none" xmlns="http://www.w3.org/2000/svg">
<path d="M9.27202 6.73925C9.17285 6.5415 8.97102 6.41668 8.74995 6.41668H7.58328V0.583324C7.58328 0.261324 7.32253 0 6.99995 0C6.67738 0 6.41663 0.261324 6.41663 0.583324V6.41665H5.24995C5.02888 6.41665 4.82703 6.54147 4.72788 6.73922C4.62988 6.93697 4.65088 7.17322 4.7833 7.34997L6.5333 9.6833C6.54088 9.69322 6.55255 9.69672 6.56073 9.70605C6.59923 9.75155 6.64473 9.78655 6.69548 9.81862C6.71648 9.83144 6.7328 9.84837 6.75555 9.85887C6.83023 9.89387 6.91188 9.91662 6.99998 9.91662C7.08808 9.91662 7.16973 9.89387 7.24498 9.85887C7.26715 9.84837 7.28405 9.83144 7.30448 9.81862C7.35523 9.78655 7.40073 9.75155 7.43923 9.70605C7.4468 9.69672 7.45905 9.69322 7.46665 9.6833L9.21665 7.34997C9.34963 7.17325 9.37063 6.937 9.27202 6.73925Z" fill="white"/>
<path d="M13.4167 8.75C13.0941 8.75 12.8334 9.01132 12.8334 9.33332V11.0833C12.8334 12.0481 12.0482 12.8333 11.0834 12.8333H2.91668C1.95185 12.8333 1.16668 12.0481 1.16668 11.0833V9.33332C1.16668 9.01132 0.905926 8.75 0.583352 8.75C0.26075 8.75 0 9.01132 0 9.33332V11.0833C0 12.6916 1.30843 14 2.91668 14H11.0834C12.6916 14 14 12.6916 14 11.0833V9.33332C14 9.01132 13.7393 8.75 13.4167 8.75Z" fill="white"/>
</svg>
