<svg width="180" height="180" viewBox="0 0 180 180" fill="none" xmlns="http://www.w3.org/2000/svg">
<g clip-path="url(#clip0)">
<path d="M180 90C180 139.706 139.706 180 90 180C75.1363 180 61.1142 176.397 48.7596 170.016C37.2667 164.081 29.1575 153.801 21.215 143.723C20.3716 142.654 17.6115 143.505 16.8166 142.397C6.23145 127.639 0 109.547 0 90C0 40.2943 40.2943 0 90 0C139.706 0 180 40.2943 180 90Z" fill="#F2F6F6"/>
<path d="M83.6856 161.719H35.6189C28.4277 156.258 22.083 149.74 16.8163 142.397V26.3672C16.8163 25.3965 17.6034 24.6094 18.5741 24.6094H83.6859C84.6566 24.6094 85.4437 25.3965 85.4437 26.3672V159.961C85.4434 160.932 84.6566 161.719 83.6856 161.719Z" fill="#D8DEE4"/>
<path d="M30.2189 24.6094C29.2482 24.6094 28.4611 25.3965 28.4611 26.3672V155.673C24.1622 151.643 20.2588 147.196 16.8163 142.396V26.3672C16.8163 25.3965 17.6034 24.6094 18.5741 24.6094H30.2189Z" fill="#BBC5CF"/>
<path d="M25.3125 36.9141C25.3125 35.9434 26.0996 35.1562 27.0703 35.1562H41.1328C42.1035 35.1562 42.8906 35.9434 42.8906 36.9141C42.8906 37.8847 42.1035 38.6719 41.1328 38.6719H27.0703C26.0996 38.6719 25.3125 37.8847 25.3125 36.9141ZM27.0703 63.2812H41.1328C42.1035 63.2812 42.8906 62.4941 42.8906 61.5234C42.8906 60.5528 42.1035 59.7656 41.1328 59.7656H27.0703C26.0996 59.7656 25.3125 60.5528 25.3125 61.5234C25.3125 62.4941 26.0996 63.2812 27.0703 63.2812ZM41.1328 84.375H27.0703C26.0996 84.375 25.3125 85.1621 25.3125 86.1328C25.3125 87.1035 26.0996 87.8906 27.0703 87.8906H41.1328C42.1035 87.8906 42.8906 87.1035 42.8906 86.1328C42.8906 85.1621 42.1035 84.375 41.1328 84.375ZM27.0703 70.3125H55.1953C56.166 70.3125 56.9531 69.5254 56.9531 68.5547C56.9531 67.584 56.166 66.7969 55.1953 66.7969H27.0703C26.0996 66.7969 25.3125 67.584 25.3125 68.5547C25.3125 69.5254 26.0996 70.3125 27.0703 70.3125ZM55.1953 77.3438H27.0703C26.0996 77.3438 25.3125 78.1309 25.3125 79.1016C25.3125 80.0722 26.0996 80.8594 27.0703 80.8594H55.1953C56.166 80.8594 56.9531 80.0722 56.9531 79.1016C56.9531 78.1309 56.166 77.3438 55.1953 77.3438ZM27.0703 45.7031H37.6172C38.5879 45.7031 39.375 44.916 39.375 43.9453C39.375 42.9746 38.5879 42.1875 37.6172 42.1875H27.0703C26.0996 42.1875 25.3125 42.9746 25.3125 43.9453C25.3125 44.916 26.0996 45.7031 27.0703 45.7031Z" fill="#909BA6"/>
<path d="M158.555 8.78906V142.383C158.555 143.353 157.768 144.141 156.797 144.141H49.8632C48.8925 144.141 48.1053 143.353 48.1053 142.383V8.78906C48.1053 7.8184 48.8925 7.03125 49.8632 7.03125H156.797C157.768 7.03125 158.555 7.8184 158.555 8.78906Z" fill="white"/>
<path d="M58.5939 144.141H49.8635C48.8929 144.141 48.1057 143.353 48.1057 142.383V8.78906C48.1057 7.8184 48.8929 7.03125 49.8635 7.03125H58.5939C57.6232 7.03125 56.8361 7.8184 56.8361 8.78906V142.383C56.8361 143.353 57.6229 144.141 58.5939 144.141Z" fill="#F0F2F4"/>
<path d="M120.41 131.836C120.41 130.865 121.197 130.078 122.168 130.078H144.433C145.404 130.078 146.191 130.865 146.191 131.836C146.191 132.807 145.404 133.594 144.433 133.594H122.168C121.197 133.594 120.41 132.807 120.41 131.836ZM97.3827 126.562H144.408C145.378 126.562 146.166 125.775 146.166 124.805C146.166 123.834 145.378 123.047 144.408 123.047H97.3827C96.4121 123.047 95.6249 123.834 95.6249 124.805C95.6249 125.775 96.4121 126.562 97.3827 126.562ZM97.4671 119.531H144.492C145.463 119.531 146.25 118.744 146.25 117.773C146.25 116.803 145.463 116.016 144.492 116.016H97.4671C96.4964 116.016 95.7093 116.803 95.7093 117.773C95.7093 118.744 96.4961 119.531 97.4671 119.531ZM97.4671 112.5H144.492C145.463 112.5 146.25 111.713 146.25 110.742C146.25 109.772 145.463 108.984 144.492 108.984H97.4671C96.4964 108.984 95.7093 109.772 95.7093 110.742C95.7093 111.713 96.4961 112.5 97.4671 112.5ZM86.1612 17.5781H63.8957C62.925 17.5781 62.1379 18.3653 62.1379 19.3359C62.1379 20.3066 62.925 21.0938 63.8957 21.0938H86.1612C87.1319 21.0938 87.919 20.3066 87.919 19.3359C87.919 18.3653 87.1319 17.5781 86.1612 17.5781ZM95.536 24.6094H63.8953C62.9247 24.6094 62.1375 25.3965 62.1375 26.3672C62.1375 27.3379 62.9247 28.125 63.8953 28.125H95.536C96.5066 28.125 97.2938 27.3379 97.2938 26.3672C97.2938 25.3965 96.507 24.6094 95.536 24.6094Z" fill="#2E61AD"/>
<path d="M146.412 43.9453V100.195C146.412 101.166 145.625 101.953 144.655 101.953H62.4478C61.4771 101.953 60.6899 101.166 60.6899 100.195V43.9453C60.6899 42.9746 61.4771 42.1875 62.4478 42.1875H144.655C145.626 42.1875 146.412 42.9746 146.412 43.9453Z" fill="#EFEFEF"/>
<path d="M146.412 52.7344V63.2812H60.6899V52.7344H146.412ZM60.6899 84.375H146.412V73.8281H60.6899V84.375Z" fill="#DBDBDB"/>
<path d="M143.438 46.7578C143.438 47.7285 142.65 48.5156 141.68 48.5156H127.617C126.647 48.5156 125.859 47.7285 125.859 46.7578C125.859 45.7871 126.647 45 127.617 45H141.68C142.65 45 143.438 45.7871 143.438 46.7578Z" fill="#87CFB5"/>
<path d="M141.328 59.0625H134.297C133.326 59.0625 132.539 58.2754 132.539 57.3047C132.539 56.334 133.326 55.5469 134.297 55.5469H141.328C142.299 55.5469 143.086 56.334 143.086 57.3047C143.086 58.2754 142.299 59.0625 141.328 59.0625ZM141.328 77.3438H137.992C137.021 77.3438 136.234 78.1309 136.234 79.1016C136.234 80.0722 137.021 80.8594 137.992 80.8594H141.328C142.299 80.8594 143.086 80.0722 143.086 79.1016C143.086 78.1309 142.299 77.3438 141.328 77.3438Z" fill="#87CFB5"/>
<path d="M137.707 92.4028C137.49 92.8155 137.118 93.1253 136.673 93.2634L125.075 96.8712C124.149 97.1587 123.162 96.6419 122.874 95.7149C122.586 94.7878 123.103 93.8027 124.031 93.5141L131.489 91.1941L105.998 78.1557C105.629 77.9669 105.338 77.653 105.178 77.2701L97.954 60.0313L82.1168 69.5333C81.7002 69.7833 81.1981 69.8494 80.7309 69.7165C80.2633 69.5832 79.872 69.2626 79.6495 68.8302L68.6558 47.4654C68.2114 46.6019 68.5514 45.542 69.4145 45.098C69.6718 44.9658 69.9464 44.9028 70.2174 44.9028C70.8548 44.9028 71.4701 45.2509 71.7819 45.8566L81.9171 65.5529L97.8865 55.9714C98.3238 55.7088 98.8533 55.6494 99.3384 55.8083C99.8232 55.9672 100.215 56.3286 100.412 56.799L108.172 75.3176L133.24 88.1394L130.866 80.5077C130.577 79.5806 131.095 78.5955 132.022 78.3069C132.196 78.2531 132.372 78.2271 132.545 78.2271C133.294 78.2271 133.988 78.7101 134.223 79.4632L137.83 91.0612C137.967 91.5081 137.923 91.9901 137.707 92.4028Z" fill="#32AF82"/>
<path d="M131.129 146.385L117.599 177.611C117.313 178.271 116.494 178.502 115.905 178.09L105.702 170.953C97.2463 165.038 87.6047 161.033 77.446 159.217C68.357 157.592 59.6717 154.214 51.874 149.27L39.8347 141.637C39.3626 141.337 39.1784 140.739 39.4006 140.226L52.9378 108.983C53.2152 108.343 53.9992 108.101 54.5884 108.475L66.3253 115.917C74.123 120.861 82.8087 124.239 91.8973 125.864C102.056 127.68 111.697 131.684 120.153 137.6L130.737 145.003C131.179 145.312 131.343 145.89 131.129 146.385Z" fill="#32AF82"/>
<path d="M110.287 140.77L102.183 159.476C100.33 158.494 98.437 157.584 96.5115 156.749C90.8872 154.312 84.9831 152.52 78.9763 151.446C70.8643 149.996 63.2221 147.023 56.2625 142.61L49.1437 138.097L57.1949 119.516L62.1983 122.688C70.9097 128.211 80.475 131.932 90.6288 133.748C97.4871 134.973 104.18 137.373 110.287 140.77Z" fill="#54C29B"/>
<path d="M131.714 143.607L121.131 136.203C112.532 130.188 102.527 126.033 92.1978 124.186C83.2832 122.593 74.8861 119.326 67.2379 114.477L55.501 107.035C54.7978 106.59 53.94 106.475 53.1455 106.72C52.351 106.964 51.7055 107.542 51.3747 108.305L37.8374 139.548C37.2781 140.838 37.7344 142.322 38.9223 143.075L50.9616 150.709C58.9846 155.795 67.7944 159.222 77.146 160.894C86.9922 162.655 96.529 166.615 104.725 172.349L114.928 179.486C115.088 179.598 115.256 179.692 115.431 179.767C116.025 180.025 116.693 180.072 117.33 179.892C118.154 179.659 118.822 179.074 119.162 178.288L132.692 147.062C133.226 145.83 132.814 144.377 131.714 143.607ZM116.312 176.295L106.679 169.556C98.0801 163.542 88.075 159.386 77.7461 157.54C68.8315 155.946 60.4345 152.679 52.7862 147.83L41.1572 140.457L54.2375 110.269L65.4133 117.355C73.4366 122.442 82.2464 125.87 91.598 127.541C101.444 129.302 110.981 133.262 119.177 138.996L129.381 146.134L116.312 176.295Z" fill="#75BAA1"/>
<path d="M118.629 155.805C116.135 161.561 109.446 164.206 103.69 161.712C97.9336 159.217 95.2891 152.529 97.7834 146.773C100.278 141.017 106.966 138.372 112.722 140.866C118.479 143.36 121.123 150.048 118.629 155.805Z" fill="#7CCFB1"/>
<path d="M125.901 137.676L113.455 138.076C103.141 138.407 93.0225 140.979 83.8017 145.613C75.552 149.758 66.5738 152.258 57.3684 152.973L43.1562 154.076C42.5986 154.119 42.0927 153.75 41.9633 153.206L34.0792 120.082C33.9175 119.403 34.4005 118.741 35.0963 118.687L48.952 117.611C58.1573 116.896 67.1352 114.397 75.3853 110.251C84.6061 105.618 94.7248 103.046 105.039 102.714L117.948 102.299C118.488 102.282 118.965 102.647 119.09 103.172L126.97 136.278C127.136 136.977 126.619 137.653 125.901 137.676Z" fill="#32AF82"/>
<path d="M103.76 130.997C101.688 131.321 99.6275 131.727 97.586 132.212C91.6232 133.632 85.8224 135.735 80.37 138.475C73.0069 142.175 65.1069 144.374 56.8916 145.012L48.4878 145.664L43.7987 125.964L49.7053 125.505C59.9889 124.707 69.8766 121.954 79.0935 117.323C85.3182 114.195 92.1143 112.105 99.0394 111.165L103.76 130.997Z" fill="#54C29B"/>
<path d="M128.627 135.883L120.747 102.777C120.436 101.47 119.235 100.553 117.893 100.596L104.984 101.011C94.4955 101.348 83.9954 104.017 74.6199 108.728C66.5283 112.794 57.8479 115.211 48.8198 115.912L34.964 116.987C34.1343 117.052 33.3784 117.474 32.8891 118.146C32.3993 118.818 32.2288 119.667 32.4215 120.476L40.3056 153.601C40.6315 154.969 41.8859 155.883 43.2883 155.774L57.5006 154.671C66.9716 153.936 76.0782 151.4 84.567 147.135C93.5041 142.644 103.513 140.1 113.51 139.779L125.955 139.378C126.15 139.372 126.341 139.346 126.526 139.303C127.156 139.152 127.718 138.791 128.12 138.264C128.641 137.584 128.825 136.716 128.627 135.883ZM113.4 136.373C102.912 136.71 92.4121 139.379 83.0366 144.09C74.9451 148.156 66.2647 150.573 57.2365 151.274L43.5084 152.34L35.8904 120.334L49.0834 119.31C58.5552 118.574 67.6614 116.039 76.1499 111.773C85.0873 107.283 95.0956 104.739 105.093 104.417L117.539 104.017L125.15 135.995L113.4 136.373Z" fill="#7CCFB1"/>
<path d="M106.306 131.883C100.203 133.336 94.0784 129.566 92.6258 123.463C91.1731 117.36 94.9429 111.235 101.046 109.782C107.149 108.33 113.274 112.1 114.727 118.203C116.179 124.306 112.41 130.431 106.306 131.883Z" fill="#7CCFB1"/>
<path d="M97.046 122.411C96.1745 118.749 98.4364 115.074 102.098 114.202C105.76 113.331 109.435 115.593 110.307 119.255C111.178 122.917 108.917 126.591 105.255 127.463C101.592 128.335 97.9175 126.073 97.046 122.411ZM110.916 145.035C107.462 143.538 103.449 145.125 101.952 148.579C100.456 152.033 102.043 156.046 105.497 157.542C108.95 159.039 112.963 157.452 114.46 153.998C115.956 150.544 114.37 146.531 110.916 145.035Z" fill="#32AF82"/>
<path d="M100.873 118.584C100.536 117.169 100.667 115.752 101.166 114.495C101.465 114.377 101.776 114.279 102.098 114.203C105.76 113.331 109.434 115.593 110.306 119.255C110.643 120.67 110.512 122.087 110.013 123.344C109.714 123.462 109.403 123.56 109.081 123.636C105.419 124.508 101.744 122.246 100.873 118.584ZM110.916 145.035C109.187 144.286 107.319 144.309 105.696 144.952C104.345 148.359 105.936 152.247 109.323 153.715C111.051 154.464 112.92 154.441 114.542 153.798C115.894 150.391 114.303 146.502 110.916 145.035Z" fill="#DBF3A0"/>
<path d="M167.167 159.537C161.676 165.029 152.772 165.029 147.28 159.537C141.788 154.046 141.788 145.141 147.28 139.65C152.772 134.158 161.676 134.158 167.167 139.65C172.659 145.142 172.659 154.046 167.167 159.537Z" fill="#FFBD3C"/>
<path d="M162.746 151.387C160 154.132 155.548 154.132 152.803 151.387C150.057 148.641 150.057 144.189 152.803 141.443C155.548 138.697 160 138.697 162.746 141.443C165.492 144.189 165.492 148.641 162.746 151.387Z" fill="#FFA90B"/>
<path d="M168.41 138.407C162.242 132.239 152.205 132.239 146.037 138.407C139.869 144.575 139.869 154.612 146.037 160.781C152.205 166.949 162.242 166.949 168.41 160.781C174.579 154.612 174.579 144.576 168.41 138.407ZM165.924 158.295C161.127 163.092 153.32 163.092 148.523 158.295C143.726 153.497 143.726 145.691 148.523 140.893C153.32 136.096 161.127 136.096 165.924 140.893C170.722 145.691 170.722 153.497 165.924 158.295ZM163.438 153.323C164.125 154.009 164.125 155.123 163.438 155.809C162.752 156.495 161.639 156.495 160.953 155.809L151.009 145.865C150.322 145.179 150.322 144.066 151.009 143.379C151.695 142.693 152.809 142.693 153.495 143.379L163.438 153.323Z" fill="#FFCD71"/>
<path d="M85.0781 100.195V166.992C85.0781 169.905 82.717 172.266 79.8047 172.266H30.5859C27.6736 172.266 25.3125 169.905 25.3125 166.992V100.195C25.3125 97.283 27.6736 94.9219 30.5859 94.9219H79.8047C82.717 94.9219 85.0781 97.283 85.0781 100.195Z" fill="#2E61AD"/>
<path d="M41.1637 172.266H30.5859C27.6736 172.266 25.3125 169.905 25.3125 166.992V100.195C25.3125 97.283 27.6736 94.9219 30.5859 94.9219H41.1637C38.2514 94.9219 35.8903 97.283 35.8903 100.195V166.992C35.8903 169.905 38.2511 172.266 41.1637 172.266Z" fill="#315386"/>
<path d="M78.0469 129.375V132.539C78.0469 133.51 77.2597 134.297 76.2891 134.297H70.3125C69.3418 134.297 68.5547 133.51 68.5547 132.539V129.375C68.5547 128.404 69.3418 127.617 70.3125 127.617H76.2891C77.2597 127.617 78.0469 128.404 78.0469 129.375ZM64.2189 127.617H58.2423C57.2716 127.617 56.4845 128.404 56.4845 129.375V132.539C56.4845 133.51 57.2716 134.297 58.2423 134.297H64.2189C65.1895 134.297 65.9767 133.51 65.9767 132.539V129.375C65.9767 128.404 65.1895 127.617 64.2189 127.617ZM52.1483 127.617H46.1718C45.2011 127.617 44.4139 128.404 44.4139 129.375V132.539C44.4139 133.51 45.2011 134.297 46.1718 134.297H52.1483C53.119 134.297 53.9061 133.51 53.9061 132.539V129.375C53.9061 128.404 53.1193 127.617 52.1483 127.617ZM40.0781 127.617H34.1016C33.1309 127.617 32.3438 128.404 32.3438 129.375V132.539C32.3438 133.51 33.1309 134.297 34.1016 134.297H40.0781C41.0488 134.297 41.8359 133.51 41.8359 132.539V129.375C41.8359 128.404 41.0488 127.617 40.0781 127.617ZM76.2891 137.812H70.3125C69.3418 137.812 68.5547 138.6 68.5547 139.57V142.734C68.5547 143.705 69.3418 144.492 70.3125 144.492H76.2891C77.2597 144.492 78.0469 143.705 78.0469 142.734V139.57C78.0469 138.6 77.2597 137.812 76.2891 137.812ZM64.2189 137.812H58.2423C57.2716 137.812 56.4845 138.6 56.4845 139.57V142.734C56.4845 143.705 57.2716 144.492 58.2423 144.492H64.2189C65.1895 144.492 65.9767 143.705 65.9767 142.734V139.57C65.9767 138.6 65.1895 137.812 64.2189 137.812ZM52.1483 137.812H46.1718C45.2011 137.812 44.4139 138.6 44.4139 139.57V142.734C44.4139 143.705 45.2011 144.492 46.1718 144.492H52.1483C53.119 144.492 53.9061 143.705 53.9061 142.734V139.57C53.9061 138.6 53.1193 137.812 52.1483 137.812ZM40.0781 137.812H34.1016C33.1309 137.812 32.3438 138.6 32.3438 139.57V142.734C32.3438 143.705 33.1309 144.492 34.1016 144.492H40.0781C41.0488 144.492 41.8359 143.705 41.8359 142.734V139.57C41.8359 138.6 41.0488 137.812 40.0781 137.812ZM76.2891 148.008H70.3125C69.3418 148.008 68.5547 148.795 68.5547 149.766V152.93C68.5547 153.9 69.3418 154.688 70.3125 154.688H76.2891C77.2597 154.688 78.0469 153.9 78.0469 152.93V149.766C78.0469 148.795 77.2597 148.008 76.2891 148.008ZM64.2189 148.008H58.2423C57.2716 148.008 56.4845 148.795 56.4845 149.766V152.93C56.4845 153.9 57.2716 154.688 58.2423 154.688H64.2189C65.1895 154.688 65.9767 153.9 65.9767 152.93V149.766C65.9767 148.795 65.1895 148.008 64.2189 148.008ZM52.1483 148.008H46.1718C45.2011 148.008 44.4139 148.795 44.4139 149.766V152.93C44.4139 153.9 45.2011 154.688 46.1718 154.688H52.1483C53.119 154.688 53.9061 153.9 53.9061 152.93V149.766C53.9061 148.795 53.1193 148.008 52.1483 148.008ZM76.2891 158.203H70.3125C69.3418 158.203 68.5547 158.99 68.5547 159.961V163.125C68.5547 164.096 69.3418 164.883 70.3125 164.883H76.2891C77.2597 164.883 78.0469 164.096 78.0469 163.125V159.961C78.0469 158.99 77.2597 158.203 76.2891 158.203ZM64.2189 158.203H58.2423C57.2716 158.203 56.4845 158.99 56.4845 159.961V163.125C56.4845 164.096 57.2716 164.883 58.2423 164.883H64.2189C65.1895 164.883 65.9767 164.096 65.9767 163.125V159.961C65.9767 158.99 65.1895 158.203 64.2189 158.203ZM52.1483 158.203H46.1718C45.2011 158.203 44.4139 158.99 44.4139 159.961V163.125C44.4139 164.096 45.2011 164.883 46.1718 164.883H52.1483C53.119 164.883 53.9061 164.096 53.9061 163.125V159.961C53.9061 158.99 53.1193 158.203 52.1483 158.203Z" fill="#85A2CE"/>
<path d="M41.8359 149.766V163.125C41.8359 164.096 41.0488 164.883 40.0781 164.883H34.1016C33.1309 164.883 32.3438 164.096 32.3438 163.125V149.766C32.3438 148.795 33.1309 148.008 34.1016 148.008H40.0781C41.0488 148.008 41.8359 148.795 41.8359 149.766Z" fill="#B9E746"/>
<path d="M78.0469 104.414V114.258C78.0469 115.228 77.2597 116.016 76.2891 116.016H34.1016C33.1309 116.016 32.3438 115.228 32.3438 114.258V104.414C32.3438 103.443 33.1309 102.656 34.1016 102.656H76.2891C77.2597 102.656 78.0469 103.443 78.0469 104.414Z" fill="#9BCF1B"/>
<path d="M78.0471 104.414V114.258C78.0471 115.228 77.26 116.016 76.2893 116.016H51.822C48.133 116.016 45.1423 113.025 45.1423 109.336C45.1423 105.647 48.133 102.656 51.822 102.656H76.2893C77.26 102.656 78.0471 103.443 78.0471 104.414Z" fill="#B9E746"/>
</g>
<defs>
<clipPath id="clip0">
<rect width="180" height="180" fill="white"/>
</clipPath>
</defs>
</svg>
