<svg width="17" height="18" viewBox="0 0 17 18" fill="none" xmlns="http://www.w3.org/2000/svg">
<path d="M4.31846 17.1708C3.16056 17.1708 2.07505 16.7244 1.26173 15.9139C0.44842 15.1034 0 14.0224 0 12.8689C0 11.7158 0.448092 10.6344 1.26173 9.8242L10.202 0.918213C11.4811 -0.35533 13.4686 -0.298227 14.825 1.05297C16.1814 2.40418 16.2397 4.38383 14.9607 5.65835L6.56187 14.025C5.77345 14.8104 4.48944 14.8117 3.69971 14.025C2.91063 13.2386 2.91096 11.9595 3.69971 11.1738L9.38898 5.5063C9.58092 5.31508 9.89177 5.31508 10.0837 5.5063C10.2757 5.69751 10.2757 6.00716 10.0837 6.19837L4.39445 11.8659C3.98861 12.2701 3.98861 12.9283 4.39445 13.3329C4.80094 13.7372 5.46129 13.7365 5.86713 13.3329L14.2659 4.96627C15.1487 4.08657 15.0907 2.70176 14.1303 1.74505C13.1699 0.788347 11.7798 0.730592 10.8967 1.61029L1.95647 10.5163C1.32855 11.1418 0.982659 11.9774 0.982659 12.8689C0.982659 13.7607 1.32855 14.5963 1.95647 15.2218C2.58439 15.8473 3.42326 16.1919 4.31846 16.1919C5.21333 16.1919 6.05219 15.8473 6.68011 15.2218L15.6203 6.31584C15.8123 6.12463 16.1231 6.12463 16.3151 6.31584C16.507 6.50705 16.507 6.81671 16.3151 7.00792L7.37485 15.9139C6.56154 16.7241 5.47603 17.1708 4.31846 17.1708Z" fill="white"/>
</svg>
