<svg width="18" height="18" viewBox="0 0 18 18" fill="none" xmlns="http://www.w3.org/2000/svg">
<path d="M15.375 4.5H11.625C11.418 4.5 11.25 4.33125 11.25 4.12499V0.375012C11.25 0.168012 11.082 0 10.875 0H3.375C2.75474 0 2.25 0.504738 2.25 1.125V16.875C2.25 17.4953 2.75474 18 3.375 18H14.625C15.2453 18 15.75 17.4953 15.75 16.875V4.87501C15.75 4.66801 15.582 4.5 15.375 4.5ZM15 16.875C15 17.0813 14.832 17.25 14.625 17.25H3.375C3.168 17.25 2.99999 17.0813 2.99999 16.875V1.125C2.99999 0.918738 3.168 0.749988 3.375 0.749988H10.5V4.12499C10.5 4.74525 11.0047 5.24999 11.625 5.24999H15V16.875Z" fill="#585A5B"/>
<path d="M15.6404 4.61018L11.1404 0.110176C10.9942 -0.0360742 10.7564 -0.0360742 10.6102 0.110176C10.4639 0.256426 10.4639 0.494187 10.6102 0.640437L15.1102 5.14044C15.1837 5.21317 15.2797 5.24995 15.3757 5.24995C15.4717 5.24995 15.5677 5.21321 15.6404 5.14044C15.7867 4.99419 15.7867 4.75642 15.6404 4.61018Z" fill="#585A5B"/>
</svg>
