<svg width="12" height="12" viewBox="0 0 12 12" fill="none" xmlns="http://www.w3.org/2000/svg">
<g clip-path="url(#clip0)">
<path d="M11.878 9.52845L8.32601 5.99934L11.878 2.47023C11.9236 2.58392 11.9501 2.70633 11.9501 2.83527V9.1634C11.9501 9.29233 11.9236 9.41475 11.878 9.52845Z" fill="#32AF82" stroke="#2E3641" stroke-width="0.1"/>
<path d="M0.689956 1.90309C0.803526 1.85759 0.925787 1.83113 1.05457 1.83113H10.9452C11.074 1.83113 11.1962 1.85759 11.3098 1.90309L6.71031 6.47943L6.71022 6.47952C6.31846 6.87127 5.68131 6.87127 5.28955 6.47952L5.28946 6.47943L0.689956 1.90309Z" fill="#32AF82" stroke="#2E3641" stroke-width="0.1"/>
<path d="M0.05 2.83527C0.05 2.70633 0.0765277 2.58392 0.122134 2.47023L3.67411 5.99934L0.122132 9.52845C0.0765275 9.41477 0.05 9.29235 0.05 9.1634V2.83527Z" fill="#32AF82" stroke="#2E3641" stroke-width="0.1"/>
<path d="M7.27806 7.04791L7.75781 6.56816L11.3098 10.0972C11.1962 10.1427 11.074 10.1692 10.9452 10.1692H1.05457C0.925807 10.1692 0.803564 10.1427 0.690008 10.0972L4.24196 6.56816L4.72169 7.04791C5.4265 7.75272 6.57325 7.75272 7.27806 7.04791Z" fill="#32AF82" stroke="#2E3641" stroke-width="0.1"/>
</g>
<defs>
<clipPath id="clip0">
<rect width="12" height="12" fill="white"/>
</clipPath>
</defs>
</svg>
