<svg width="9" height="11" viewBox="0 0 9 11" fill="none" xmlns="http://www.w3.org/2000/svg">
<path d="M8.78738 2.73779C8.74088 2.59105 8.64644 2.43468 8.57658 2.29778C7.74062 0.606222 5.91406 0 4.43921 0C2.46484 0 0.290318 1.1147 0 3.41235V3.88178C0 3.90137 0.00801882 4.07734 0.0194092 4.16537C0.182155 5.26038 1.20835 6.42413 1.97476 7.51913C2.7993 8.69232 4.00507 11 4.50254 11C5 11 5.54602 9.48447 6.05679 8.75114C6.196 8.53593 6.35759 8.32085 6.49694 8.11543C6.58983 7.97866 6.76728 7.84189 6.84834 7.71463C7.67285 6.44359 9 5.16273 9 3.90134V3.38315C9.00003 3.2464 8.79871 2.76728 8.78738 2.73779ZM4.47535 5.0943C3.89499 5.0943 3.25974 4.84996 2.94619 4.17517C2.89947 4.06775 2.90324 3.85249 2.90324 3.83277V3.52966C2.90324 2.66943 3.77073 2.27824 4.52541 2.27824C5.4545 2.27824 6.17306 2.90411 6.17306 3.68638C6.17306 4.46864 5.40444 5.0943 4.47535 5.0943Z" fill="#32AF82"/>
</svg>
