<svg width="12" height="11" viewBox="0 0 12 11" fill="none" xmlns="http://www.w3.org/2000/svg">
<path fill-rule="evenodd" clip-rule="evenodd" d="M10.9617 9.63792L10.9619 9.63772C11.1355 9.46331 11.1349 9.18122 10.9604 9.00763L8.98515 7.02887L8.98375 7.02747C8.80939 6.85384 8.52726 6.85446 8.35363 7.02887L7.23445 8.1656C6.90841 8.48942 6.39743 8.53375 6.02053 8.27086C5.36825 7.81473 4.75774 7.30166 4.19615 6.73765C3.69245 6.23572 3.22905 5.69494 2.8103 5.12024C2.53454 4.74301 2.57631 4.22085 2.90852 3.89227L4.06631 2.73447L4.06771 2.73308C4.24134 2.55871 4.24072 2.27658 4.06631 2.10295L2.09457 0.131214L2.09317 0.129816C1.91881 -0.0438119 1.63668 -0.043195 1.46305 0.131214L0.838559 0.755705C0.0806914 1.5012 -0.190954 2.61084 0.136854 3.6221C0.422807 4.48292 0.826595 5.29995 1.33675 6.04996C1.80315 6.74698 2.33789 7.39577 2.93311 7.98663C3.58001 8.63748 4.29655 9.21514 5.06976 9.7093C5.902 10.2559 6.81639 10.6657 7.77827 10.9232C8.73299 11.1511 9.73747 10.8638 10.4272 10.1654L10.9592 9.63689C10.9597 9.63642 10.9605 9.63675 10.9605 9.63742C10.9605 9.63807 10.9612 9.63838 10.9617 9.63792Z" fill="#32AF82"/>
</svg>
