<svg width="34" height="34" viewBox="0 0 34 34" fill="none" xmlns="http://www.w3.org/2000/svg">
<g filter="url(#filter0_d)">
<path fill-rule="evenodd" clip-rule="evenodd" d="M10.6351 6.63702C14.1493 3.12174 19.8478 3.1209 23.363 6.63508C25.051 8.32251 25.9995 10.6113 26 12.9981C26.0006 15.3852 25.0527 17.6748 23.365 19.363C19.8508 22.8783 14.1523 22.8791 10.637 19.365C7.12174 15.8508 7.12089 10.1523 10.6351 6.63702Z" fill="#32AF82"/>
</g>
<path d="M20.6083 11.192C20.5708 11.0562 20.4947 10.9114 20.4383 10.7847C19.7639 9.21869 18.2904 8.65747 17.1007 8.65747C15.5079 8.65747 13.7537 9.68941 13.5195 11.8165V12.2511C13.5195 12.2692 13.526 12.4321 13.5352 12.5136C13.6665 13.5273 14.4943 14.6047 15.1126 15.6184C15.7777 16.7045 16.7504 18.8408 17.1517 18.8408C17.5531 18.8408 17.9935 17.4378 18.4056 16.7589C18.5179 16.5597 18.6482 16.3606 18.7606 16.1704C18.8356 16.0438 18.9787 15.9172 19.0441 15.7993C19.7093 14.6227 20.7799 13.4369 20.7799 12.2692V11.7894C20.7799 11.6628 20.6175 11.2193 20.6083 11.192ZM17.1298 13.3736C16.6616 13.3736 16.1492 13.1474 15.8962 12.5227C15.8585 12.4232 15.8616 12.2239 15.8616 12.2057V11.9251C15.8616 11.1287 16.5614 10.7666 17.1702 10.7666C17.9197 10.7666 18.4994 11.346 18.4994 12.0702C18.4994 12.7943 17.8793 13.3736 17.1298 13.3736Z" fill="white"/>
<defs>
<filter id="filter0_d" x="0" y="0" width="34" height="34" filterUnits="userSpaceOnUse" color-interpolation-filters="sRGB">
<feFlood flood-opacity="0" result="BackgroundImageFix"/>
<feColorMatrix in="SourceAlpha" type="matrix" values="0 0 0 0 0 0 0 0 0 0 0 0 0 0 0 0 0 0 127 0"/>
<feOffset dy="4"/>
<feGaussianBlur stdDeviation="4"/>
<feColorMatrix type="matrix" values="0 0 0 0 0.0630208 0 0 0 0 0.0985723 0 0 0 0 0.125 0 0 0 0.08 0"/>
<feBlend mode="normal" in2="BackgroundImageFix" result="effect1_dropShadow"/>
<feBlend mode="normal" in="SourceGraphic" in2="effect1_dropShadow" result="shape"/>
</filter>
</defs>
</svg>
