<svg width="34" height="34" viewBox="0 0 34 34" fill="none" xmlns="http://www.w3.org/2000/svg">
<g filter="url(#filter0_d)">
<path fill-rule="evenodd" clip-rule="evenodd" d="M10.6351 6.63702C14.1493 3.12174 19.8478 3.1209 23.363 6.63508C25.051 8.32251 25.9995 10.6113 26 12.9981C26.0006 15.3852 25.0527 17.6748 23.365 19.363C19.8508 22.8783 14.1523 22.8791 10.637 19.365C7.12174 15.8508 7.12089 10.1523 10.6351 6.63702Z" fill="#32AF82"/>
</g>
<path fill-rule="evenodd" clip-rule="evenodd" d="M21.2292 16.272L21.2293 16.2718C21.3549 16.1457 21.3544 15.9417 21.2283 15.8162L19.8 14.3854L19.7989 14.3843C19.6729 14.2588 19.4689 14.2592 19.3433 14.3854L18.534 15.2073C18.2982 15.4415 17.9288 15.4735 17.6562 15.2834C17.1846 14.9536 16.7431 14.5826 16.337 14.1748C15.9728 13.8118 15.6377 13.4208 15.3349 13.0052C15.1355 12.7324 15.1657 12.3549 15.4059 12.1173L16.2431 11.2801L16.2441 11.279C16.3697 11.153 16.3692 10.9489 16.2431 10.8234L14.8173 9.39762L14.8163 9.3966C14.6902 9.27105 14.4862 9.2715 14.3607 9.39762L13.9091 9.84919C13.3611 10.3883 13.1647 11.1907 13.4017 11.9219C13.6085 12.5444 13.9005 13.1352 14.2693 13.6775C14.6066 14.1815 14.9933 14.6507 15.4237 15.0779C15.8915 15.5486 16.4096 15.9663 16.9687 16.3236C17.5705 16.7189 18.2317 17.0152 18.9273 17.2014C19.6176 17.3662 20.344 17.1584 20.8427 16.6534L21.2274 16.2712C21.2277 16.2709 21.2283 16.2711 21.2283 16.2716C21.2283 16.2721 21.2289 16.2723 21.2292 16.272Z" fill="white"/>
<defs>
<filter id="filter0_d" x="0" y="0" width="34" height="34" filterUnits="userSpaceOnUse" color-interpolation-filters="sRGB">
<feFlood flood-opacity="0" result="BackgroundImageFix"/>
<feColorMatrix in="SourceAlpha" type="matrix" values="0 0 0 0 0 0 0 0 0 0 0 0 0 0 0 0 0 0 127 0"/>
<feOffset dy="4"/>
<feGaussianBlur stdDeviation="4"/>
<feColorMatrix type="matrix" values="0 0 0 0 0.0630208 0 0 0 0 0.0985723 0 0 0 0 0.125 0 0 0 0.08 0"/>
<feBlend mode="normal" in2="BackgroundImageFix" result="effect1_dropShadow"/>
<feBlend mode="normal" in="SourceGraphic" in2="effect1_dropShadow" result="shape"/>
</filter>
</defs>
</svg>
